<svg width="30" height="30" fill="none" xmlns="http://www.w3.org/2000/svg"><path d="M28.75 19.962a8.744 8.744 0 01-8.75 8.75l1.313-2.187M1.25 9.962A8.744 8.744 0 0110 1.212L8.687 3.4" stroke="#fff" stroke-width="1.5" stroke-linecap="round" stroke-linejoin="round"/><path d="M8.275 16.337h3.513c.775 0 1.412.7 1.412 1.413a1.41 1.41 0 01-1.412 1.412H8.275v-2.825zm0 2.826H12.3c.888 0 1.613.625 1.613 1.412 0 .775-.725 1.413-1.613 1.413H8.275v-2.825zm2.25 2.812v1.4m0-8.437v1.4" stroke="#fff" stroke-width="1.5" stroke-miterlimit="10" stroke-linecap="round" stroke-linejoin="round"/><path d="M18.563 19.163a7.709 7.709 0 01-7.713 7.712 7.709 7.709 0 01-7.712-7.712 7.709 7.709 0 017.712-7.713c.2 0 .388.013.6.025a7.718 7.718 0 017.1 7.1c0 .188.013.375.013.588z" stroke="#fff" stroke-width="1.5" stroke-miterlimit="10" stroke-linecap="round" stroke-linejoin="round"/><path d="M26.875 10.838a7.709 7.709 0 01-7.712 7.712h-.613a7.718 7.718 0 00-7.1-7.1v-.612a7.709 7.709 0 017.713-7.713 7.709 7.709 0 017.712 7.713z" stroke="#fff" stroke-width="1.5" stroke-miterlimit="10" stroke-linecap="round" stroke-linejoin="round"/></svg>