<svg width="24" height="24" fill="none" xmlns="http://www.w3.org/2000/svg"><path d="M8.076 16.837a.538.538 0 01-.383.163.529.529 0 01-.382-.163L5.158 14.64A.553.553 0 015 14.25a.562.562 0 01.158-.39.54.54 0 01.382-.162.531.531 0 01.383.161l1.232 1.264V9.851c0-1.02.397-2 1.104-2.72a3.729 3.729 0 012.664-1.128.53.53 0 01.38.161.555.555 0 010 .778.532.532 0 01-.38.16 2.68 2.68 0 00-1.903.806c-.25.255-.448.558-.583.891a2.8 2.8 0 00-.205 1.052v5.271l1.232-1.264a.538.538 0 01.383-.163.529.529 0 01.382.163.55.55 0 01.159.39.56.56 0 01-.16.39l-2.152 2.2zm5.694-8.476a.558.558 0 000 .78.535.535 0 00.765 0l1.232-1.263v5.271c0 .729-.283 1.428-.788 1.944a2.663 2.663 0 01-1.903.805.533.533 0 00-.38.16.556.556 0 000 .778.533.533 0 00.38.16c1 0 1.958-.405 2.664-1.126a3.89 3.89 0 001.104-2.721V7.878l1.232 1.264a.537.537 0 00.383.162.529.529 0 00.382-.162.55.55 0 00.159-.39.56.56 0 00-.16-.39l-2.152-2.2A.539.539 0 0016.306 6a.529.529 0 00-.383.163L13.77 8.36z" fill="#859AB5"/></svg>