<svg width="24" height="24" viewBox="0 0 24 24" fill="none" xmlns="http://www.w3.org/2000/svg">
<g clip-path="url(#clip0_4050:135496)">
<path d="M12 24C18.6276 24 24 18.6276 24 12C24 5.3724 18.6276 0 12 0C5.3724 0 0 5.3724 0 12C0 18.6276 5.3724 24 12 24Z" fill="#F0F0F0"/>
<path d="M11.5344 12.0587H24.118C24.118 10.9698 23.9733 9.91581 23.702 8.91251H11.5344V12.0587ZM11.5344 5.76752H22.3477C21.6106 4.56446 20.6692 3.49933 19.5657 2.62012H11.5344V5.76752ZM12.059 24.1177C14.7864 24.1217 17.4338 23.1972 19.5657 21.4961H4.55225C6.68413 23.1972 9.33162 24.1217 12.059 24.1177ZM1.77024 18.3499H22.3477C22.9477 17.3718 23.4042 16.3127 23.7032 15.2049H0.416016C0.717491 16.3264 1.17694 17.3827 1.77024 18.3499Z" fill="#D80027"/>
<path d="M5.58694 1.88363H6.68431L5.66291 2.62526L6.05362 3.82754L5.03102 3.08471L4.00962 3.82754L4.34727 2.79047C3.44646 3.53812 2.6578 4.41843 2.00782 5.39521H2.35995L1.70876 5.86913C1.60747 6.03796 1.51099 6.20919 1.41693 6.38405L1.72806 7.34033L1.14922 6.91826C1.00452 7.22456 0.871866 7.53689 0.753688 7.85525L1.09616 8.9092H2.36115L1.33855 9.65204L1.72926 10.8531L0.706658 10.1103L0.0952661 10.5565C0.0325593 11.0473 0 11.5489 0 12.059H12.059V1.20555e-05C9.76601 -0.00323725 7.52007 0.650416 5.58694 1.88363ZM6.05362 10.8531L5.03102 10.1103L4.00962 10.8531L4.39913 9.65204L3.37773 8.9092H4.64031L5.02981 7.70692L5.42052 8.9092H6.68431L5.6617 9.65204L6.05241 10.8531H6.05362ZM5.66291 6.13805L6.05362 7.34033L5.03102 6.59749L4.00962 7.34033L4.39913 6.13925L3.37773 5.39642H4.64031L5.02981 4.19413L5.42052 5.39642H6.68431L5.6617 6.13925L5.66291 6.13805ZM10.378 10.8531L9.35658 10.1103L8.33518 10.8531L8.72469 9.65204L7.70329 8.9092H8.96708L9.35658 7.70692L9.74729 8.9092H11.0111L9.98847 9.65204L10.3804 10.8531H10.378ZM9.98847 6.13805L10.3792 7.34033L9.35658 6.59749L8.33518 7.34033L8.72469 6.13925L7.70329 5.39642H8.96708L9.35658 4.19413L9.74729 5.39642H11.0111L9.98847 6.13925V6.13805ZM9.98847 2.62526L10.3792 3.82754L9.35658 3.08471L8.33518 3.82754L8.72469 2.62526L7.70329 1.88363H8.96708L9.35538 0.681346L9.74609 1.88363H11.0099L9.98727 2.62526H9.98847Z" fill="#0052B4"/>
</g>
<defs>
<clipPath id="clip0_4050:135496">
<rect width="24" height="24" fill="white"/>
</clipPath>
</defs>
</svg>
